<svg width="20" height="20" viewBox="0 0 20 20" fill="none" xmlns="http://www.w3.org/2000/svg">
<path fill-rule="evenodd" clip-rule="evenodd" d="M14.334 0H5.665C2.26743 0 0 2.4326 0 5.916V14.084C0 17.5707 2.26137 20 5.665 20H14.333C17.7376 20 20 17.5707 20 14.084V5.916C20 2.4295 17.7378 0 14.334 0ZM5.665 1.5H14.334C16.8845 1.5 18.5 3.23496 18.5 5.916V14.084C18.5 16.7652 16.8844 18.5 14.333 18.5H5.665C3.11476 18.5 1.5 16.7653 1.5 14.084V5.916C1.5 3.23837 3.12034 1.5 5.665 1.5ZM6.8399 7.398C5.40375 7.398 4.2389 8.56372 4.2389 10C4.2389 11.4363 5.40375 12.602 6.8399 12.602C8.01605 12.602 9.01007 11.8211 9.33212 10.75L11.4312 10.7499V11.8515L11.438 11.9533C11.4877 12.3193 11.8015 12.6015 12.1812 12.6015C12.5954 12.6015 12.9312 12.2657 12.9312 11.8515V10.7498L14.2596 10.7498L14.2599 11.852L14.2667 11.9538C14.3164 12.3198 14.6302 12.602 15.0099 12.602C15.4241 12.602 15.7599 12.2662 15.7599 11.852V10L15.7531 9.89823C15.7034 9.53215 15.3896 9.25 15.0099 9.25H12.2088C12.1997 9.24967 12.1905 9.2495 12.1812 9.2495C12.1719 9.2495 12.1627 9.24967 12.1536 9.25H9.33211C9.01005 8.17884 8.01604 7.398 6.8399 7.398ZM6.8399 8.898C7.44828 8.898 7.9419 9.39181 7.9419 10C7.9419 10.6082 7.44828 11.102 6.8399 11.102C6.23243 11.102 5.7389 10.6081 5.7389 10C5.7389 9.3919 6.23243 8.898 6.8399 8.898Z" fill="#65656B"/>
</svg>
