<svg width="16" height="16" viewBox="0 0 16 16" fill="none" xmlns="http://www.w3.org/2000/svg">
<path fill-rule="evenodd" clip-rule="evenodd" d="M7.60914 0C3.40673 0 0 3.33149 0 7.44108C0 11.5507 3.40673 14.8822 7.60914 14.8822C9.40649 14.8822 11.0583 14.2728 12.3603 13.2537L14.8335 15.666L14.8993 15.7214C15.1289 15.8876 15.4545 15.8687 15.6622 15.665C15.8908 15.4409 15.8903 15.078 15.6612 14.8545L13.217 12.4706C14.4597 11.1462 15.2183 9.38025 15.2183 7.44108C15.2183 3.33149 11.8115 0 7.60914 0ZM7.60913 1.14613C11.1643 1.14613 14.0463 3.96447 14.0463 7.44108C14.0463 10.9177 11.1643 13.736 7.60913 13.736C4.054 13.736 1.172 10.9177 1.172 7.44108C1.172 3.96447 4.054 1.14613 7.60913 1.14613Z" fill="#65656B"/>
</svg>
